Coordinates
version=1
nRows=10
nColumns=60
inDegrees=yes

Units are S.I. units (second, meters, Newtons, ...)
If the header above contains a line with 'inDegrees', this indicates whether rotational values are in degrees (yes) or radians (no).

endheader
time	pelvis_tilt	pelvis_list	pelvis_rotation	pelvis_tx	pelvis_ty	pelvis_tz	hip_flexion_r	hip_adduction_r	hip_rotation_r	knee_angle_r_beta	knee_angle_r	ankle_angle_r	subtalar_angle_r	mtp_angle_r	hip_flexion_l	hip_adduction_l	hip_rotation_l	knee_angle_l_beta	knee_angle_l	ankle_angle_l	subtalar_angle_l	mtp_angle_l	L5_S1_Flex_Ext	L5_S1_Lat_Bending	L5_S1_axial_rotation	L4_L5_Flex_Ext	L4_L5_Lat_Bending	L4_L5_axial_rotation	L3_L4_Flex_Ext	L3_L4_Lat_Bending	L3_L4_axial_rotation	L2_L3_Flex_Ext	L2_L3_Lat_Bending	L2_L3_axial_rotation	L1_L2_Flex_Ext	L1_L2_Lat_Bending	L1_L2_axial_rotation	L1_T12_Flex_Ext	L1_T12_Lat_Bending	L1_T12_axial_rotation	Abs_r3	Abs_r2	Abs_r1	Abs_t1	Abs_t2	arm_flex_r	arm_add_r	arm_rot_r	elbow_flex_r	pro_sup_r	wrist_flex_r	wrist_dev_r	arm_flex_l	arm_add_l	arm_rot_l	elbow_flex_l	pro_sup_l	wrist_flex_l	wrist_dev_l
      9.00000000	      0.80560949	      4.72713170	     92.59358246	      0.40109544	      0.93431045	      0.32792281	      6.91337671	     -4.41334266	      1.56303681	      0.22287689	    -12.76990540	      4.88873479	      0.00000000	      0.00000000	      7.81397948	     -6.24443830	      1.38779406	      0.21139307	    -12.11193073	      5.18233240	      0.00000000	      0.00000000	     -8.08708134	      0.20892220	     -0.05350918	    -15.01851876	      0.27786653	     -0.05685351	    -13.28626594	      0.50797344	     -0.05685351	     -9.24272527	      0.50797344	     -0.04682053	     -7.50966373	      0.42603415	     -0.04347621	     -4.62095828	      0.32362049	     -0.04013189	    -57.76521332	      2.36336972	     -0.29760202	      0.00000000	      0.00000000	     17.90420682	    -24.95489066	      3.49635234	     85.32838357	     70.44412998	      7.73725535	     13.48396590	     21.58332977	    -24.85060910	     10.67390849	     82.29685484	     65.03377589	      7.07978784	     10.31884706
      9.01000000	      0.85257762	      4.54406243	     92.57596940	      0.40113020	      0.93390541	      0.33041059	      7.32009365	     -4.37442423	      1.71488399	      0.22408328	    -12.83902610	      4.73265103	      0.00000000	      0.00000000	      8.26454907	     -6.26596406	      1.55242357	      0.21424409	    -12.27528189	      5.03840968	      0.00000000	      0.00000000	     -8.19983907	      0.21381549	     -0.04335493	    -15.22792113	      0.28437460	     -0.04606461	    -13.47151560	      0.51987097	     -0.04606461	     -9.37159607	      0.51987097	     -0.03793556	     -7.61437056	      0.43601254	     -0.03522588	     -4.68538804	      0.33120019	     -0.03251620	    -58.57063047	      2.41872354	     -0.24112711	      0.00000000	      0.00000000	     18.61348727	    -24.94000662	      3.60449926	     84.90322042	     70.48054477	      7.79358164	     13.43066980	     22.32713143	    -24.80617862	     10.76414133	     81.81588994	     65.04228207	      7.19690237	     10.30303786
      9.02000000	      0.92204968	      4.26420493	     92.57663095	      0.40112969	      0.93331462	      0.33286701	      7.79939184	     -4.33037082	      1.70619439	      0.22390768	    -12.82896486	      4.51938223	      0.00000000	      0.00000000	      8.83802153	     -6.31347992	      1.56554028	      0.21711085	    -12.43953512	      4.91550437	      0.00000000	      0.00000000	     -8.27886497	      0.22454388	     -0.02963607	    -15.37468014	      0.29864337	     -0.03148832	    -13.60134726	      0.54595600	     -0.03148832	     -9.46191478	      0.54595600	     -0.02593156	     -7.68775401	      0.45788989	     -0.02407930	     -4.73054345	      0.34781848	     -0.02222705	    -59.13510461	      2.54008533	     -0.16482691	      0.00000000	      0.00000000	     19.49538633	    -25.01922717	      4.05463298	     84.11979587	     70.55884165	      7.91633606	     13.34642977	     23.28788772	    -24.77189878	     11.21557260	     80.89929207	     65.05618650	      7.44376337	     10.32306212
      9.03000000	      0.98629640	      3.99965183	     92.56883198	      0.40119239	      0.93272453	      0.33535965	      8.29206028	     -4.28140361	      1.74747171	      0.22477628	    -12.87873219	      4.31741874	      0.00000000	      0.00000000	      9.39787512	     -6.36127456	      1.67709587	      0.22042476	    -12.62940848	      4.78128935	      0.00000000	      0.00000000	     -8.36617842	      0.23244510	     -0.01573087	    -15.53682995	      0.30915198	     -0.01671405	    -13.74479453	      0.56516702	     -0.01671405	     -9.56170532	      0.56516702	     -0.01376451	     -7.76883328	      0.47400205	     -0.01278134	     -4.78043435	      0.36005746	     -0.01179816	    -59.75877584	      2.62946546	     -0.08749040	      0.00000000	      0.00000000	     20.43224911	    -25.07814173	      4.46484144	     83.41281658	     70.62560724	      8.05695405	     13.23904151	     24.30755504	    -24.73242483	     11.64246750	     79.99955532	     65.05028732	      7.73136395	     10.35916208
      9.04000000	      1.03830152	      3.69646929	     92.57403429	      0.40126790	      0.93204788	      0.33785826	      8.82325964	     -4.24360405	      1.74584507	      0.22550479	    -12.92047252	      4.13537444	      0.00000000	      0.00000000	      9.99235510	     -6.39102143	      1.74005489	      0.22300989	    -12.77752535	      4.66688901	      0.00000000	      0.00000000	     -8.44481959	      0.24166338	     -0.00075653	    -15.68287446	      0.32141229	     -0.00080381	    -13.87399411	      0.58758034	     -0.00080381	     -9.65158431	      0.58758034	     -0.00066196	     -7.84185947	      0.49279996	     -0.00061468	     -4.82536991	      0.37433657	     -0.00056740	    -60.32050185	      2.73374446	     -0.00420759	      0.00000000	      0.00000000	     21.42078448	    -25.17452698	      4.95927226	     82.62734289	     70.67643898	      8.24784638	     13.11292138	     25.41510554	    -24.72476062	     12.15726567	     78.99054364	     65.00871392	      8.12485761	     10.43185120
      9.05000000	      1.08134864	      3.40717837	     92.57014756	      0.40135131	      0.93136056	      0.34035436	      9.36005673	     -4.21293957	      1.79285444	      0.22694867	    -13.00320097	      3.95955878	      0.00000000	      0.00000000	     10.56146864	     -6.41433574	      1.83067852	      0.22558126	    -12.92485405	      4.52929147	      0.00000000	      0.00000000	     -8.52919244	      0.24774433	      0.01078670	    -15.83956329	      0.32949996	      0.01146087	    -14.01261027	      0.60236557	      0.01146087	     -9.74801404	      0.60236557	      0.00943836	     -7.92020810	      0.50520025	      0.00876419	     -4.87358056	      0.38375597	      0.00809002	    -60.92316871	      2.80253345	      0.05999239	      0.00000000	      0.00000000	     22.48514265	    -25.24416597	      5.44675864	     81.86843427	     70.68147446	      8.47131254	     12.99435177	     26.56655256	    -24.71430668	     12.65515354	     77.97005583	     64.91460394	      8.59768237	     10.52813991
      9.06000000	      1.09923480	      3.19279769	     92.56350590	      0.40139672	      0.93077590	      0.34288570	      9.83689049	     -4.20356014	      1.90556924	      0.22931723	    -13.13890951	      3.77176668	      0.00000000	      0.00000000	     11.05436637	     -6.40833796	      1.94734951	      0.22844321	    -13.08883188	      4.34558544	      0.00000000	      0.00000000	     -8.63586550	      0.25111409	      0.01796861	    -16.03766582	      0.33398174	      0.01909165	    -14.18786343	      0.61055880	      0.01909165	     -9.86993068	      0.61055880	      0.01572253	     -8.01926470	      0.51207185	      0.01459950	     -4.93453355	      0.38897573	      0.01347646	    -61.68512367	      2.84065281	      0.09993602	      0.00000000	      0.00000000	     23.59891752	    -25.25596294	      5.82239882	     81.25534284	     70.66820074	      8.58128786	     12.97955454	     27.68728897	    -24.66487614	     12.95618105	     77.15245762	     64.84744889	      8.82954944	     10.59721284
      9.07000000	      1.11870285	      2.83306055	     92.53960199	      0.40145650	      0.92994204	      0.34537458	     10.44487845	     -4.20207450	      1.90701751	      0.23026028	    -13.19294230	      3.62546580	      0.00000000	      0.00000000	     11.66402522	     -6.40821307	      1.94997894	      0.22989916	    -13.17225138	      4.21397002	      0.00000000	      0.00000000	     -8.70271467	      0.25259208	      0.02439218	    -16.16181141	      0.33594747	      0.02591669	    -14.29768993	      0.61415239	      0.02591669	     -9.94633260	      0.61415239	      0.02134316	     -8.08134084	      0.51508578	      0.01981865	     -4.97273116	      0.39126514	      0.01829414	    -62.16262061	      2.85737218	      0.13566199	      0.00000000	      0.00000000	     24.90485611	    -25.35250912	      6.57414705	     80.22009642	     70.59631705	      8.77291348	     12.99904629	     29.01572275	    -24.68027950	     13.64574362	     75.87537486	     64.68657106	      9.28305343	     10.72395174
      9.08000000	      1.11911613	      2.61818849	     92.52508411	      0.40146432	      0.92930901	      0.34792680	     10.94419519	     -4.20620103	      2.09733980	      0.23330545	    -13.36741773	      3.43956037	      0.00000000	      0.00000000	     12.15697290	     -6.37535327	      2.10203485	      0.23304979	    -13.35276947	      4.01845911	      0.00000000	      0.00000000	     -8.81414464	      0.25350422	      0.02614634	    -16.36874800	      0.33716061	      0.02778048	    -14.48075822	      0.61637015	      0.02778048	    -10.07368590	      0.61637015	      0.02287805	     -8.18481471	      0.51694580	      0.02124390	     -5.03640224	      0.39267803	      0.01960975	    -62.95855372	      2.86769039	      0.14541809	      0.00000000	      0.00000000	     26.13657434	    -25.31749451	      6.93334549	     79.59255877	     70.54769961	      8.85189436	     13.02104136	     30.23078377	    -24.62691710	     13.90095484	     75.03217694	     64.59527616	      9.48456934	     10.77241886
      9.09000000	      1.11225294	      2.27073977	     92.50712162	      0.40145892	      0.92844375	      0.35041604	     11.56137575	     -4.23576151	      2.14057947	      0.23525684	    -13.47922398	      3.29143241	      0.00000000	      0.00000000	     12.77282489	     -6.34578023	      2.07281434	      0.23514290	    -13.47269573	      3.84364682	      0.00000000	      0.00000000	     -8.87791429	      0.25194643	      0.02797443	    -16.48717463	      0.33508875	      0.02972283	    -14.58552539	      0.61258254	      0.02972283	    -10.14656824	      0.61258254	      0.02447763	     -8.24403121	      0.51376916	      0.02272923	     -5.07284022	      0.39026502	      0.02098082	    -63.41405398	      2.85006838	      0.15558540	      0.00000000	      0.00000000	     27.64392090	    -25.38613417	      7.82039609	     78.27353772	     70.43303652	      8.98646804	     13.10969561	     31.71555438	    -24.60118475	     14.67006122	     73.53892977	     64.41659772	      9.86743968	     10.86564409
